<?xml version="1.0" encoding="utf-8"?>
<svg xmlns="http://www.w3.org/2000/svg" viewBox="0 0 480 480">
  <path
    id="lower-front-left"
    fill="none"
    stroke="#090"
    stroke-width="0.5"
    stroke-linecap="round"
    stroke-linejoin="round"
    d="M 155 5 a 5 5 0 0 0 5 5 h 270 a 2 2 0 0 1 2 2 v 7 a 2 2 0 0 1 -2 2 h -48
       a 2 2 0 0 0 -2 2 v 27 a 2 2 0 0 1 -2 2 h -150 a 1 1 0 0 0 -1 1 v 29
       a 1 1 0 0 0 1 1 h 150 a 2 2 0 0 1 2 2 a 18 18 0 0 1 -18 18 h -250 
       a 5 5 0 0 0 -5 5 v 83 a 18 18 0 0 1 -18 18 a 2 2 0 0 1 -2 -2 v -150
       a 1 1 0 0 0 -1 -1 h -74 a 2 2 0 0 1 -2 -2 v -42 a 2 2 0 0 1 2 -2 h 150
       a 14.2 14.2 0 0 1 14.2 14.2 a 14.2 14.2 0 0 1 -14.2 14.2
       a 14.2 14.2 0 0 1 -12.3 -7.1 a 14.2 14.2 0 0 0 -12.3 -7.1
       a 14.2 14.2 0 0 0 -14.2 14.2 a 14.2 14.2 0 0 0 14.2 14.2
       a 14.2 14.2 0 0 0 7.1 -2.7 a 14.2 14.2 0 0 1 7.55 -2.7
       a 14.2 14.2 0 0 1 14.2 14.2 a 14.2 14.2 0 0 1 -14.2 14.2
       a 14.2 14.2 0 0 1 -12.3 -7.1 a 14.2 14.2 0 0 0 -12.3 -7.1
       a 14.2 14.2 0 0 0 -14.2 14.2 a 14.2 14.2 0 0 0 14.2 14.2
       a 14.2 14.2 0 0 0 7.1 -2.7 a 14.2 14.2 0 0 1 7.55 -2.7
       a 14.2 14.2 0 0 1 14.2 15 v 6"
  />
  <path
    id="upper-front-left"
    fill="none"
    stroke="#c00"
    stroke-width="0.5"
    stroke-linecap="round"
    stroke-linejoin="round"
    d="M 185 5 a 5 5 0 0 0 5 5 h 188 a 2 2 0 0 1 2 2 v 11 27 3 v 9.5 l -16 -2
       v 14 l 16 -2 v 9.5 3 a 18 18 0 0 1 -18 18 h -250 a 5 5 0 0 0 -5 5 v 83
       a 18 18 0 0 1 -18 18 h -2 -9.5 l 2 -16 h -14 l 2 16 h -9.5
       a 2 2 0 0 1 -2 -2 v -150 -45 a 2 2 0 0 1 2 -2 h 135 a 5 5 0 0 0 5 -5"
  />
<!--
################################################################################
#
# Line wrap ruler
#
#   5   10   15   20   25   30   35   40   45   50   55   60   65   70   75   80
#
################################################################################
-->
<!--    transform="rotate(-90) translate(-490 24.5)"-->
</svg>
